<svg xmlns="http://www.w3.org/2000/svg" xmlns:xlink="http://www.w3.org/1999/xlink" width="500" zoomAndPan="magnify" viewBox="0 0 375 374.999991" height="500" preserveAspectRatio="xMidYMid meet" version="1.0"><defs><g/><clipPath id="7aa9116053"><path d="M 116.828125 250 L 148.304688 250 L 148.304688 252.832031 L 116.828125 252.832031 Z M 116.828125 250 " clip-rule="nonzero"/></clipPath><clipPath id="183c0f2fd0"><path d="M 116.828125 251.585938 L 148.160156 250.34375 L 148.160156 252.832031 L 116.828125 251.585938 " clip-rule="nonzero"/></clipPath><clipPath id="13027292ff"><path d="M 226.695312 250.347656 L 258.167969 250.347656 L 258.167969 253 L 226.695312 253 Z M 226.695312 250.347656 " clip-rule="nonzero"/></clipPath><clipPath id="2151fa2e4f"><path d="M 258.167969 251.589844 L 226.839844 252.832031 L 226.839844 250.347656 L 258.167969 251.589844 " clip-rule="nonzero"/></clipPath><clipPath id="8dcf64a541"><path d="M 154.933594 121.417969 L 220.183594 121.417969 L 220.183594 202.417969 L 154.933594 202.417969 Z M 154.933594 121.417969 " clip-rule="nonzero"/></clipPath></defs><g clip-path="url(#7aa9116053)"><g clip-path="url(#183c0f2fd0)"><path fill="#333333" d="M 116.828125 252.832031 L 116.828125 250.5 L 148.304688 250.5 L 148.304688 252.832031 Z M 116.828125 252.832031 " fill-opacity="1" fill-rule="nonzero"/></g></g><g clip-path="url(#13027292ff)"><g clip-path="url(#2151fa2e4f)"><path fill="#333333" d="M 258.167969 250.347656 L 258.167969 252.679688 L 226.695312 252.679688 L 226.695312 250.347656 Z M 258.167969 250.347656 " fill-opacity="1" fill-rule="nonzero"/></g></g><g clip-path="url(#8dcf64a541)"><path fill="#d8ae5e" d="M 220.15625 153.992188 L 207.492188 141.339844 L 202.628906 136.480469 L 192.144531 126.007812 C 192.144531 126.007812 187.546875 121.417969 187.546875 121.417969 L 184.3125 124.652344 L 184.246094 124.652344 L 184.246094 124.714844 L 172.464844 136.488281 L 171.097656 137.855469 L 154.949219 153.992188 L 159.546875 158.585938 L 167.515625 150.621094 L 167.515625 182.390625 L 174.011719 188.882812 L 174.011719 166.777344 L 184.253906 166.777344 L 184.253906 199.117188 L 187.554688 202.417969 L 190.753906 199.222656 L 190.753906 166.777344 L 201.003906 166.777344 L 201.003906 188.980469 L 207.5 182.488281 L 207.5 150.515625 L 215.574219 158.585938 L 220.171875 153.992188 Z M 174.003906 160.285156 L 174.003906 144.128906 L 184.246094 133.894531 L 184.246094 160.292969 L 174.003906 160.292969 Z M 200.996094 160.285156 L 190.746094 160.285156 L 190.746094 133.789062 L 200.996094 144.023438 Z M 200.996094 160.285156 " fill-opacity="1" fill-rule="nonzero"/></g><g fill="#897e68" fill-opacity="1"><g transform="translate(121.396403, 232.112812)"><g><path d="M 15.128906 -1.894531 L 5.035156 -1.894531 L 5.035156 -18.675781 L 2.707031 -18.675781 L 2.707031 0 L 15.128906 0 Z M 15.128906 -1.894531 "/></g></g></g><g fill="#897e68" fill-opacity="1"><g transform="translate(136.955137, 232.112812)"><g><path d="M 16.566406 -18.675781 L 14.238281 -18.675781 L 14.238281 -7.117188 C 14.238281 -6.523438 14.238281 -5.953125 14.183594 -5.46875 C 13.96875 -3.113281 12.425781 -1.460938 9.554688 -1.460938 C 6.6875 -1.460938 5.144531 -3.113281 4.925781 -5.46875 C 4.871094 -5.953125 4.871094 -6.523438 4.871094 -7.117188 L 4.871094 -18.675781 L 2.542969 -18.675781 L 2.542969 -6.902344 C 2.542969 -6.308594 2.542969 -5.765625 2.597656 -5.222656 C 2.871094 -2.109375 4.980469 0.378906 9.554688 0.378906 C 14.128906 0.378906 16.242188 -2.109375 16.511719 -5.222656 C 16.566406 -5.765625 16.566406 -6.308594 16.566406 -6.902344 Z M 16.566406 -18.675781 "/></g></g></g><g fill="#897e68" fill-opacity="1"><g transform="translate(155.409146, 232.112812)"><g><path d="M 14.128906 0 L 16.863281 0 L 10.097656 -9.5 L 16.59375 -18.675781 L 13.914062 -18.675781 L 8.769531 -11.042969 L 3.816406 -18.675781 L 1.164062 -18.675781 L 7.335938 -9.417969 L 0.675781 0 L 3.355469 0 L 8.660156 -7.902344 Z M 14.128906 0 "/></g></g></g><g fill="#897e68" fill-opacity="1"><g transform="translate(172.320811, 232.112812)"><g><path d="M 15.128906 -1.894531 L 5.035156 -1.894531 L 5.035156 -8.390625 L 14.046875 -8.390625 L 14.046875 -10.285156 L 5.035156 -10.285156 L 5.035156 -16.78125 L 14.859375 -16.78125 L 14.859375 -18.675781 L 2.707031 -18.675781 L 2.707031 0 L 15.128906 0 Z M 15.128906 -1.894531 "/></g></g></g><g fill="#897e68" fill-opacity="1"><g transform="translate(188.204248, 232.112812)"><g><path d="M 8.5 -19.054688 C 5.0625 -19.054688 2.273438 -17.027344 2.273438 -13.804688 C 2.273438 -10.71875 4.574219 -9.390625 7.875 -8.632812 C 11.152344 -7.875 12.449219 -6.847656 12.449219 -4.574219 C 12.449219 -2.625 10.71875 -1.460938 8.582031 -1.460938 C 6.144531 -1.460938 4.4375 -2.84375 3.898438 -5.304688 L 1.40625 -5.304688 C 1.8125 -1.707031 4.410156 0.378906 8.527344 0.378906 C 12.125 0.378906 14.941406 -1.730469 14.941406 -5.007812 C 14.941406 -8.175781 12.882812 -9.851562 8.769531 -10.800781 C 5.929688 -11.449219 4.765625 -12.316406 4.765625 -14.347656 C 4.765625 -16.292969 6.332031 -17.214844 8.308594 -17.214844 C 10.664062 -17.214844 12.046875 -15.863281 12.261719 -13.507812 L 14.75 -13.507812 C 14.398438 -16.699219 12.371094 -19.054688 8.5 -19.054688 Z M 8.5 -19.054688 "/></g></g></g><g fill="#897e68" fill-opacity="1"><g transform="translate(204.033566, 232.112812)"><g><path d="M 16.566406 -16.78125 L 16.566406 -18.675781 L 0.921875 -18.675781 L 0.921875 -16.78125 L 7.578125 -16.78125 L 7.578125 0 L 9.90625 0 L 9.90625 -16.78125 Z M 16.566406 -16.78125 "/></g></g></g><g fill="#897e68" fill-opacity="1"><g transform="translate(220.593464, 232.112812)"><g><path d="M 12.34375 -6.605469 L 14.5625 0 L 17.078125 0 L 10.636719 -18.675781 L 7.496094 -18.675781 L 0.785156 0 L 3.273438 0 L 5.46875 -6.605469 Z M 6.117188 -8.5 L 9.011719 -16.835938 L 11.71875 -8.5 Z M 6.117188 -8.5 "/></g></g></g><g fill="#897e68" fill-opacity="1"><g transform="translate(237.883952, 232.112812)"><g><path d="M 9.445312 -7.363281 L 16.050781 -18.675781 L 13.425781 -18.675781 L 8.390625 -9.609375 L 3.195312 -18.675781 L 0.515625 -18.675781 L 7.117188 -7.363281 L 7.117188 0 L 9.445312 0 Z M 9.445312 -7.363281 "/></g></g></g><g fill="#897e68" fill-opacity="1"><g transform="translate(152.750999, 255.97387)"><g><path d="M 8.863281 -2.894531 C 8.765625 -4 8.335938 -5.007812 7.4375 -5.421875 C 8.460938 -5.742188 9.40625 -6.574219 9.40625 -8.03125 C 9.40625 -9.886719 8.253906 -10.765625 6.65625 -10.972656 C 6.160156 -11.039062 5.773438 -11.039062 5.214844 -11.039062 L 1.601562 -11.039062 L 1.601562 0 L 2.976562 0 L 2.976562 -4.75 L 5.054688 -4.75 C 5.3125 -4.75 5.582031 -4.75 5.839844 -4.734375 C 6.925781 -4.65625 7.359375 -3.902344 7.488281 -2.765625 C 7.628906 -1.40625 7.773438 -0.703125 8.078125 0 L 9.597656 0 C 9.152344 -0.59375 8.992188 -1.457031 8.863281 -2.894531 Z M 2.976562 -5.871094 L 2.976562 -9.917969 L 5.214844 -9.917969 C 5.710938 -9.917969 6.015625 -9.902344 6.320312 -9.855469 C 7.34375 -9.695312 7.933594 -9.132812 7.933594 -7.902344 C 7.933594 -6.65625 7.183594 -6 6.160156 -5.902344 C 5.855469 -5.871094 5.582031 -5.871094 5.085938 -5.871094 Z M 2.976562 -5.871094 "/></g></g></g><g fill="#897e68" fill-opacity="1"><g transform="translate(162.652621, 255.97387)"><g><path d="M 8.941406 -1.121094 L 2.976562 -1.121094 L 2.976562 -4.960938 L 8.300781 -4.960938 L 8.300781 -6.078125 L 2.976562 -6.078125 L 2.976562 -9.917969 L 8.78125 -9.917969 L 8.78125 -11.039062 L 1.601562 -11.039062 L 1.601562 0 L 8.941406 0 Z M 8.941406 -1.121094 "/></g></g></g><g fill="#897e68" fill-opacity="1"><g transform="translate(172.042361, 255.97387)"><g><path d="M 5.023438 -11.261719 C 2.992188 -11.261719 1.34375 -10.0625 1.34375 -8.160156 C 1.34375 -6.335938 2.703125 -5.550781 4.65625 -5.101562 C 6.589844 -4.65625 7.359375 -4.046875 7.359375 -2.703125 C 7.359375 -1.550781 6.335938 -0.863281 5.070312 -0.863281 C 3.632812 -0.863281 2.625 -1.679688 2.304688 -3.136719 L 0.832031 -3.136719 C 1.070312 -1.007812 2.609375 0.222656 5.039062 0.222656 C 7.167969 0.222656 8.832031 -1.023438 8.832031 -2.960938 C 8.832031 -4.832031 7.613281 -5.824219 5.183594 -6.382812 C 3.503906 -6.765625 2.816406 -7.277344 2.816406 -8.480469 C 2.816406 -9.628906 3.742188 -10.175781 4.910156 -10.175781 C 6.304688 -10.175781 7.117188 -9.375 7.246094 -7.984375 L 8.71875 -7.984375 C 8.511719 -9.871094 7.3125 -11.261719 5.023438 -11.261719 Z M 5.023438 -11.261719 "/></g></g></g><g fill="#897e68" fill-opacity="1"><g transform="translate(181.400114, 255.97387)"><g><path d="M 5.96875 -11.261719 C 2.609375 -11.261719 0.75 -8.894531 0.75 -5.519531 C 0.75 -2.160156 2.609375 0.222656 5.96875 0.222656 C 9.328125 0.222656 11.183594 -2.160156 11.183594 -5.519531 C 11.183594 -8.894531 9.328125 -11.261719 5.96875 -11.261719 Z M 5.96875 -0.863281 C 3.648438 -0.863281 2.289062 -2.65625 2.289062 -5.519531 C 2.289062 -8.398438 3.648438 -10.175781 5.96875 -10.175781 C 8.285156 -10.175781 9.648438 -8.398438 9.648438 -5.519531 C 9.648438 -2.65625 8.285156 -0.863281 5.96875 -0.863281 Z M 5.96875 -0.863281 "/></g></g></g><g fill="#897e68" fill-opacity="1"><g transform="translate(193.189279, 255.97387)"><g><path d="M 8.863281 -2.894531 C 8.765625 -4 8.335938 -5.007812 7.4375 -5.421875 C 8.460938 -5.742188 9.40625 -6.574219 9.40625 -8.03125 C 9.40625 -9.886719 8.253906 -10.765625 6.65625 -10.972656 C 6.160156 -11.039062 5.773438 -11.039062 5.214844 -11.039062 L 1.601562 -11.039062 L 1.601562 0 L 2.976562 0 L 2.976562 -4.75 L 5.054688 -4.75 C 5.3125 -4.75 5.582031 -4.75 5.839844 -4.734375 C 6.925781 -4.65625 7.359375 -3.902344 7.488281 -2.765625 C 7.628906 -1.40625 7.773438 -0.703125 8.078125 0 L 9.597656 0 C 9.152344 -0.59375 8.992188 -1.457031 8.863281 -2.894531 Z M 2.976562 -5.871094 L 2.976562 -9.917969 L 5.214844 -9.917969 C 5.710938 -9.917969 6.015625 -9.902344 6.320312 -9.855469 C 7.34375 -9.695312 7.933594 -9.132812 7.933594 -7.902344 C 7.933594 -6.65625 7.183594 -6 6.160156 -5.902344 C 5.855469 -5.871094 5.582031 -5.871094 5.085938 -5.871094 Z M 2.976562 -5.871094 "/></g></g></g><g fill="#897e68" fill-opacity="1"><g transform="translate(203.090901, 255.97387)"><g><path d="M 9.789062 -9.917969 L 9.789062 -11.039062 L 0.542969 -11.039062 L 0.542969 -9.917969 L 4.480469 -9.917969 L 4.480469 0 L 5.855469 0 L 5.855469 -9.917969 Z M 9.789062 -9.917969 "/></g></g></g><g fill="#897e68" fill-opacity="1"><g transform="translate(212.880554, 255.97387)"><g><path d="M 5.023438 -11.261719 C 2.992188 -11.261719 1.34375 -10.0625 1.34375 -8.160156 C 1.34375 -6.335938 2.703125 -5.550781 4.65625 -5.101562 C 6.589844 -4.65625 7.359375 -4.046875 7.359375 -2.703125 C 7.359375 -1.550781 6.335938 -0.863281 5.070312 -0.863281 C 3.632812 -0.863281 2.625 -1.679688 2.304688 -3.136719 L 0.832031 -3.136719 C 1.070312 -1.007812 2.609375 0.222656 5.039062 0.222656 C 7.167969 0.222656 8.832031 -1.023438 8.832031 -2.960938 C 8.832031 -4.832031 7.613281 -5.824219 5.183594 -6.382812 C 3.503906 -6.765625 2.816406 -7.277344 2.816406 -8.480469 C 2.816406 -9.628906 3.742188 -10.175781 4.910156 -10.175781 C 6.304688 -10.175781 7.117188 -9.375 7.246094 -7.984375 L 8.71875 -7.984375 C 8.511719 -9.871094 7.3125 -11.261719 5.023438 -11.261719 Z M 5.023438 -11.261719 "/></g></g></g></svg>